<?xml version="1.0" encoding="UTF-8"?>
<svg id="Layer_2" data-name="Layer 2" xmlns="http://www.w3.org/2000/svg" viewBox="0 0 307.75 42.38">
  <defs>
    <style>
      .cls-1 {
        fill: #fff;
      }
    </style>
  </defs>
  <g id="Layer_1-2" data-name="Layer 1">
    <path class="cls-1" d="M301.78,3.56h1.03c.31,0,.56.06.73.21.17.14.25.34.25.58s-.09.44-.27.57c-.18.13-.44.2-.77.2h-.96v-1.55h0M301.78,8.08v-2.08h.66l1.43,2.08h1.33l-1.61-2.29c.39-.09.7-.26.96-.52.25-.26.38-.57.38-.98,0-.52-.18-.92-.56-1.21-.36-.29-.86-.43-1.45-.43h-2.21v5.42h1.09-.01ZM300.49,9c-.64-.35-1.14-.83-1.52-1.46-.38-.62-.57-1.36-.57-2.2s.19-1.56.57-2.17c.39-.62.9-1.11,1.53-1.46.64-.35,1.32-.52,2.08-.52s1.46.17,2.09.52c.64.35,1.14.83,1.53,1.46.39.62.57,1.35.57,2.17s-.19,1.56-.57,2.2c-.39.62-.9,1.12-1.53,1.46-.64.35-1.33.52-2.09.52s-1.46-.17-2.09-.52ZM305.21,9.74c.78-.44,1.4-1.05,1.86-1.8.45-.77.69-1.62.69-2.57s-.23-1.78-.69-2.55c-.45-.77-1.08-1.36-1.86-1.82-.78-.45-1.65-.68-2.62-.68s-1.84.22-2.62.66c-.78.44-1.4,1.04-1.86,1.81-.45.77-.69,1.61-.69,2.57s.23,1.81.69,2.57c.46.77,1.08,1.36,1.86,1.8.78.44,1.65.66,2.62.66s1.84-.22,2.62-.66ZM197.08.82h-12.41c1.08,2.73.47,7.72-1.51,12.58-2.99,7.37-12.02,27.97-12.02,27.97h9.42l12.15-30.65,12.07,30.65h9.71L197.07.81h.01ZM146.63,33.75v-10.85h16.95v-6.82h-16.95v-7.64h19.38V.82h-31.19s.3.52.49.91c.95,1.87,1.47,3.3,1.83,5.01.09.43.17.87.23,1.34.2,1.29.45,3.66.52,6.67v26.63h29.32v-7.63h-20.59ZM127.81,25.97c-7.35,13.21-29.31,10.3-28.27-5.83.57-8.87,7.44-12.5,13.91-12.11,5.75.35,8.82,4.29,9.72,6.96l6.3-7.83s-1.96-2.23-6.43-4.64c-4.79-2.57-12.8-4.05-21.36-.04-15.06,7.07-15.56,33.05,3.78,38.79,8.08,2.4,15.2.53,19.9-2.38,5.55-3.43,7.95-8.25,7.95-8.25l-5.51-4.69h0ZM236.92,18.29L251.51.82h-10.03l-14.13,16.41V.82h-11.95s.3.52.49.91c1.17,2.34,1.7,3.96,2.08,6.35.17,1.13.4,3.09.48,5.59v27.71h8.9v-17.27c8.71.58,15.17,9.35,16.93,17.27h9.38c-2.13-9.33-8.51-17.94-16.72-23.09M76.55,28.13l-7.39-18.46-7.25,18.46h14.64ZM73.58.82l17.42,40.56h-9.24l-2.79-6.93h-19.58l-2.81,6.93h-8.94s9.03-20.6,12.02-27.97c1.98-4.87,2.59-9.85,1.51-12.58h12.41ZM272.57,8.07c-15.32,2.1-14.06,27.02,2.7,26.62,17.85-.43,16.81-29.3-2.7-26.62ZM296.89,24.31c-2.01,19.23-29.46,24.24-40.18,9.52-9.3-12.76-1.56-31.56,14.24-33.44,15.4-1.83,27.63,7.86,25.94,23.92ZM34.15.82h9.39v40.56h-8.9V12.62l-11.45,12.89-11.21-12.63v28.52H3.09V14.63c-.07-2.95-.31-5.26-.52-6.53-.38-2.39-.91-4.01-2.08-6.35-.2-.39-.49-.91-.49-.91h12.6l10.6,12.29L34.18.83h-.03Z"/>
  </g>
</svg>